<?xml version="1.0" encoding="iso-8859-1"?>
<!-- Generator: Adobe Illustrator 19.0.0, SVG Export Plug-In . SVG Version: 6.00 Build 0)  -->
<svg version="1.1" id="Layer_1" xmlns="http://www.w3.org/2000/svg" xmlns:xlink="http://www.w3.org/1999/xlink" x="0px" y="0px"
	 viewBox="0 0 512.01 512.01" style="enable-background:new 0 0 512.01 512.01;" xml:space="preserve">
<path style="fill:#6A1B9A;" d="M503.468,259.407v14.933c0.017,1.946-0.606,3.831-1.792,5.376l-24.235,33.536v22.357
	c0,1.707-0.085,3.413-0.171,5.035c-2.987,44.715-46.507,80.213-99.755,80.213c-5.794,0.009-11.588-0.418-17.323-1.28
	c-43.947-5.973-77.824-34.901-82.091-73.387c-0.367-4.489-4.122-7.936-8.619-7.936h-26.965c-1.237-0.017-2.466,0.247-3.584,0.768
	c-2.85,1.306-4.77,4.045-5.035,7.168c-4.779,43.435-47.36,74.667-99.413,74.667c-5.649,0-11.298-0.401-16.896-1.195
	c-46.763-6.827-82.432-41.301-83.029-82.944v-23.467l-24.235-33.536c-1.186-1.545-1.809-3.43-1.792-5.376v-14.933
	c-0.068-4.89,3.814-8.926,8.704-9.045h104.107v0.171c4.181-0.171,8.363-0.171,12.629-0.171h3.072
	c32.256-0.171,60.928-2.645,78.507,15.189c1.647,1.741,3.917,2.756,6.315,2.816h68.267c2.398-0.06,4.668-1.075,6.315-2.816
	c11.179-11.264,26.624-14.421,44.629-15.189h3.84c10.155-0.341,21.163,0,32.597,0h3.243c3.328,0,6.656,0,9.899,0.171v-0.171h104.107
	C499.653,250.481,503.536,254.517,503.468,259.407z"/>
<path style="fill:#9D27B0;" d="M469.334,259.407v14.933c0.017,1.946-0.606,3.831-1.792,5.376l-24.235,33.536v22.357
	c0,1.707-0.085,3.413-0.171,5.035c-2.645,39.936-37.632,72.448-82.944,78.933c-43.947-5.973-77.824-34.901-82.091-73.387
	c-0.367-4.489-4.122-7.936-8.619-7.936h-26.965c-1.237-0.017-2.466,0.247-3.584,0.768c-1.118-0.521-2.347-0.785-3.584-0.768h-26.965
	c-4.497,0-8.252,3.447-8.619,7.936c-4.267,38.485-38.229,67.413-82.176,73.472c-46.763-6.827-82.432-41.301-83.029-82.944v-23.467
	l-24.235-33.536c-1.186-1.545-1.809-3.43-1.792-5.376v-14.933c-0.068-4.89,3.814-8.926,8.704-9.045h69.973v0.171
	c4.352-0.171,8.704-0.171,13.141-0.171h3.499c10.581-0.085,20.651-0.427,30.123,0h3.072c17.92,0.768,33.365,4.011,44.373,15.189
	c1.647,1.741,3.917,2.756,6.315,2.816h102.4c2.398-0.06,4.668-1.075,6.315-2.816c11.179-11.264,26.624-14.421,44.629-15.189h3.84
	c3.925,0,7.765,0,11.605,0.171v-0.171H460.63C465.52,250.481,469.402,254.517,469.334,259.407z"/>
<path d="M377.516,429.382c-57.31,0-102.69-34.611-107.913-82.295l-27.136-0.282c-5.299,47.966-50.679,82.577-107.989,82.577
	c-59.025,0-107.682-41.523-108.467-92.561v-20.83L3.372,284.742c-2.21-3.063-3.379-6.682-3.371-10.462v-14.916
	c-0.094-9.395,7.535-17.28,17.015-17.485h104.363c0.393,0,0.785,0.026,1.169,0.077c8.201-0.162,16.691-0.077,24.798-0.188
	c28.843-0.375,56.021-0.717,74.266,17.801l68.565,0.222c18.458-18.739,45.636-18.406,74.487-18.022
	c8.107,0.102,16.589,0.017,24.806,0.188c0.375-0.051,0.768-0.077,1.161-0.077h104.166c9.66,0.213,17.28,8.073,17.212,17.527v14.899
	c0.017,3.755-1.161,7.381-3.379,10.462L486,316.008v19.635c0,1.911-0.111,3.806-0.222,5.589
	C482.45,390.65,434.902,429.382,377.516,429.382z M242.441,329.747h27.085c8.977,0.034,16.299,6.784,17.067,15.693
	c4.233,38.673,42.487,66.884,90.923,66.884s88.499-31.736,91.204-72.243c0.102-1.425,0.188-2.944,0.188-4.446v-22.4
	c0-1.801,0.563-3.55,1.621-5.009l24.26-33.493l0.145-15.369c0-0.026,0-0.06,0-0.085c0-0.179-0.154-0.341-0.333-0.341H391.937
	c-0.503,0.077-1.024,0.137-1.527,0.102c-8.585-0.205-17.476-0.094-25.975-0.213c-26.103-0.333-48.751-0.623-61.884,12.723
	c-3.157,3.285-7.501,5.188-12.169,5.308h-68.557c-4.864-0.119-9.216-2.022-12.442-5.376c-13.073-13.278-35.661-12.971-61.815-12.655
	c-4.361,0.06-8.96,0.145-13.303,0.111c-4.292,0-8.482,0-12.672,0.102c-0.521,0.026-1.05-0.017-1.57-0.102H17.204l-0.137,15.36
	l24.397,33.929c1.058,1.459,1.621,3.209,1.621,5.009v23.467c0.649,41.643,41.651,75.622,91.401,75.622
	c48.444,0,86.69-28.211,90.94-67.072C226.177,336.531,233.498,329.781,242.441,329.747z"/>
<path d="M68.268,309.916c-2.185,0-4.369-0.836-6.033-2.5c-3.337-3.337-3.337-8.73,0-12.066l17.067-17.067
	c3.337-3.337,8.73-3.337,12.066,0s3.337,8.73,0,12.066l-17.067,17.067C72.637,309.088,70.452,309.916,68.268,309.916z"/>
<path d="M76.801,352.582c-2.185,0-4.369-0.836-6.033-2.5c-3.337-3.337-3.337-8.73,0-12.066l51.2-51.2
	c3.337-3.337,8.73-3.337,12.066,0c3.337,3.337,3.337,8.73,0,12.066l-51.2,51.2C81.17,351.755,78.985,352.582,76.801,352.582z"/>
<path d="M324.268,309.916c-2.185,0-4.369-0.836-6.033-2.5c-3.337-3.337-3.337-8.73,0-12.066l17.067-17.067
	c3.337-3.337,8.73-3.337,12.066,0s3.337,8.73,0,12.066l-17.067,17.067C328.637,309.088,326.452,309.916,324.268,309.916z"/>
<path d="M332.801,352.582c-2.185,0-4.369-0.836-6.033-2.5c-3.337-3.337-3.337-8.73,0-12.066l51.2-51.2
	c3.337-3.337,8.73-3.337,12.066,0c3.337,3.337,3.337,8.73,0,12.066l-51.2,51.2C337.17,351.755,334.985,352.582,332.801,352.582z"/>
<path d="M273.068,309.916h-34.133c-4.71,0-8.533-3.814-8.533-8.533c0-4.719,3.823-8.533,8.533-8.533h34.133
	c4.719,0,8.533,3.814,8.533,8.533C281.601,306.101,277.786,309.916,273.068,309.916z"/>
<path d="M17.213,258.938c-2.389,0-4.762-0.998-6.451-2.944c-3.089-3.558-2.705-8.951,0.853-12.041L188.972,90.14
	c0.41-0.358,0.853-0.674,1.331-0.947c0.896-0.521,22.153-12.57,39.279-2.679c11.87,6.861,17.886,21.734,17.886,44.211
	c0,4.71-3.823,8.533-8.533,8.533s-8.533-3.823-8.533-8.533c0-15.462-3.311-25.907-9.318-29.406
	c-6.733-3.908-17.297,0.068-21.623,2.321L22.793,256.847C21.181,258.246,19.192,258.938,17.213,258.938z"/>
<path d="M494.934,258.938c-1.98,0-3.977-0.691-5.589-2.091L312.679,103.639c-4.275-2.244-14.899-6.246-21.606-2.321
	c-6.016,3.507-9.327,13.943-9.327,29.406c0,4.71-3.814,8.533-8.533,8.533c-4.71,0-8.533-3.823-8.533-8.533
	c0-22.477,6.016-37.35,17.894-44.211c17.101-9.865,38.374,2.176,39.279,2.679c0.469,0.273,0.913,0.589,1.323,0.947l177.357,153.813
	c3.558,3.089,3.942,8.474,0.862,12.041C499.696,257.939,497.315,258.938,494.934,258.938z"/>
<g>
</g>
<g>
</g>
<g>
</g>
<g>
</g>
<g>
</g>
<g>
</g>
<g>
</g>
<g>
</g>
<g>
</g>
<g>
</g>
<g>
</g>
<g>
</g>
<g>
</g>
<g>
</g>
<g>
</g>
</svg>
